<?xml version="1.0" encoding="utf-8"?>
<!-- Generator: Adobe Illustrator 27.8.1, SVG Export Plug-In . SVG Version: 6.00 Build 0)  -->
<svg version="1.1" xmlns="http://www.w3.org/2000/svg" xmlns:xlink="http://www.w3.org/1999/xlink" x="0px" y="0px"
	 viewBox="0 0 465.5 234.6" style="enable-background:new 0 0 465.5 234.6;" xml:space="preserve">
<style type="text/css">
	.st0{fill:#231F20;}
	.st1{fill:#FFEC00;}
	.st2{fill:#FFFFFF;}
</style>
<g id="Outline_Text">
</g>
<g id="Design">
</g>
<g id="Editable_Text">
	<g>
		<g>
			<polygon class="st1" points="11.9,219.4 446.8,219.4 446.8,214.2 13.6,214.2 			"/>
			<polygon class="st1" points="8.6,229.2 446.8,229.2 446.8,224.1 10.3,224.1 			"/>
			<polygon class="st1" points="17,204.4 15.2,209.5 446.8,209.5 446.8,204.4 			"/>
		</g>
		<g>
			<polygon class="st1" points="450.1,31.5 199.6,31.5 199.6,36.6 445.4,36.6 			"/>
			<polygon class="st1" points="459.2,21.7 199.6,21.7 199.6,26.8 454.5,26.8 			"/>
			<polygon class="st1" points="441.1,41.4 199.6,41.4 199.6,46.5 436.3,46.5 			"/>
		</g>
		<g>
			<path class="st2" d="M44.9,56.2h58.6l-2.2,10.6H72.8l-5.4,25.5h23.8L88.9,103H65.1l-8.9,41.7H26.1L44.9,56.2z"/>
			<path class="st2" d="M181.3,77.2c0,5.5-1.5,10.5-4.6,15.2c-3.1,4.6-8.1,8.2-15.2,10.6l16.2,41.7h-31.1L134.3,106h-1.5l-8.2,38.6
				H94.5l18.8-88.5h36.6c4.3,0,8.3,0.3,12.1,0.8c3.8,0.5,7.1,1.5,10,3.1c2.8,1.5,5.1,3.7,6.8,6.4C180.4,69.1,181.3,72.7,181.3,77.2z
				 M141.2,97.1c2.4,0,4.5-0.8,6.2-2.4c1.7-1.6,3.1-3.6,4.2-5.9c1.1-2.3,1.8-4.8,2.3-7.5c0.5-2.6,0.7-4.9,0.7-6.9
				c0-2.4-0.4-4.5-1.3-6.2c-0.8-1.7-2.6-2.6-5.4-2.6h-6.3l-7,31.5H141.2z"/>
			<path class="st2" d="M201.5,56.2h58.6l-2.2,10.6h-28.4l-5.9,26.9h23.8l-2.2,10.4h-23.8l-6.4,29.8h28.4l-2.1,10.7h-58.6
				L201.5,56.2z"/>
			<path class="st2" d="M329.9,144.6h-32.6l-2-22.1h-25.8l-9.9,22.1h-13.5l41.1-88.5h33L329.9,144.6z M274.2,112.3h20.2l-3.2-37.9
				L274.2,112.3z"/>
			<path class="st2" d="M377.4,94.6L411.8,56h15.7l-31.2,33.9l21.2,54.7h-30.4l-12.3-38.9l-8.2,38.9h-30.1l18.8-88.5h30.2
				L377.4,94.6z"/>
		</g>
		<g>
			<polygon class="st1" points="262.1,46.5 46.7,46.5 55.8,7.2 271.2,7.2 			"/>
			<g>
				<path d="M89.7,38.4c-0.7,0.3-1.5,0.7-2.2,1c-0.8,0.3-1.6,0.6-2.5,0.9c-0.9,0.2-1.8,0.4-2.9,0.6c-1,0.1-2.2,0.2-3.4,0.2
					c-3.9,0-6.9-0.9-9-2.6s-3.2-4.7-3.2-8.7c0-2.4,0.4-4.6,1.1-6.7c0.7-2.1,1.8-3.9,3.2-5.5c1.4-1.6,3.2-2.8,5.3-3.7
					c2.1-0.9,4.5-1.4,7.2-1.4c1.3,0,2.5,0.1,3.5,0.3c1.1,0.2,2,0.4,2.9,0.7c0.9,0.3,1.6,0.6,2.3,0.9c0.7,0.3,1.3,0.6,1.9,0.9
					l-1.6,8.1h-7.9c0-0.3,0.1-0.7,0.1-1.1c0-0.5,0.1-0.9,0.1-1.4s0.1-1,0.1-1.4c0-0.5,0-0.9,0-1.2c0-0.2,0-0.5,0-0.8
					c0-0.3-0.1-0.6-0.2-0.9c-0.1-0.3-0.3-0.5-0.5-0.7c-0.2-0.2-0.6-0.3-1-0.3c-0.8,0-1.4,0.3-2.1,0.9c-0.6,0.6-1.2,1.5-1.7,2.5
					c-0.5,1-0.9,2.2-1.3,3.5c-0.4,1.3-0.7,2.6-0.9,4c-0.2,1.4-0.4,2.7-0.6,4c-0.1,1.3-0.2,2.5-0.2,3.4c0,0.3,0,0.7,0,1.1
					c0,0.4,0.1,0.9,0.3,1.3c0.1,0.4,0.4,0.8,0.7,1c0.3,0.3,0.7,0.4,1.2,0.4c0.9,0,1.8-0.6,2.6-1.7c0.8-1.1,1.6-3.1,2.2-6h8.1
					L89.7,38.4z"/>
				<path d="M110.9,12.6c2.5,0,4.5,0.3,6.1,1c1.6,0.6,2.8,1.6,3.7,3c0.6,0.9,1,1.9,1.4,3.1c0.3,1.1,0.5,2.4,0.5,3.9
					c0,1.3-0.1,2.6-0.3,3.8c-0.2,1.3-0.6,2.5-1,3.7c-0.4,1.2-0.9,2.3-1.5,3.3c-0.6,1-1.3,1.9-2,2.7c-1.4,1.5-2.9,2.5-4.7,3.1
					c-1.8,0.6-4,0.9-6.6,0.9c-2.5,0-4.6-0.3-6.1-0.8c-1.5-0.5-2.8-1.4-3.7-2.5c-0.6-0.8-1.1-1.8-1.5-3.1c-0.4-1.3-0.5-2.8-0.5-4.7
					c0-3.2,0.6-6.1,1.7-8.7c1.1-2.5,2.8-4.6,4.9-6c1.3-0.9,2.7-1.6,4.3-2C107,12.8,108.8,12.6,110.9,12.6z M106,38
					c0.7,0,1.3-0.3,1.9-0.9c0.6-0.6,1.1-1.4,1.7-2.4c0.5-1,1-2.1,1.4-3.4c0.4-1.3,0.8-2.6,1.1-4c0.3-1.4,0.5-2.7,0.7-4.1
					c0.2-1.4,0.2-2.6,0.2-3.7c0-1.5-0.2-2.6-0.5-3.1c-0.3-0.6-0.7-0.9-1.3-0.9c-0.7,0-1.3,0.3-1.9,0.9c-0.6,0.6-1.2,1.4-1.7,2.3
					c-0.5,1-1,2.1-1.4,3.4c-0.4,1.3-0.8,2.6-1.1,3.9c-0.3,1.3-0.5,2.7-0.7,4c-0.2,1.3-0.2,2.5-0.2,3.6c0,1.7,0.2,2.8,0.5,3.4
					C104.9,37.7,105.4,38,106,38z"/>
				<path d="M146.1,40.7h-10.2l-4.8-20l-4.3,20h-3.9l5.9-27.7h10.4l4.6,20.3l4.3-20.3h4L146.1,40.7z"/>
				<path d="M177.6,16.3h-7l-5.2,24.4h-9.4l5.2-24.4h-6.9L155,13h23.4L177.6,16.3z"/>
				<path d="M202.4,19.6c0,1.7-0.5,3.3-1.4,4.8c-1,1.5-2.5,2.6-4.8,3.3l5.1,13.1h-9.7l-3.8-12.1h-0.5l-2.6,12.1h-9.4l5.9-27.7h11.5
					c1.3,0,2.6,0.1,3.8,0.2c1.2,0.2,2.2,0.5,3.1,1c0.9,0.5,1.6,1.1,2.1,2C202.1,17.1,202.4,18.2,202.4,19.6z M189.8,25.9
					c0.8,0,1.4-0.3,1.9-0.8c0.5-0.5,1-1.1,1.3-1.9c0.3-0.7,0.6-1.5,0.7-2.3c0.1-0.8,0.2-1.5,0.2-2.2c0-0.8-0.1-1.4-0.4-1.9
					c-0.3-0.5-0.8-0.8-1.7-0.8h-2l-2.2,9.9H189.8z"/>
				<path d="M220.3,12.6c2.5,0,4.5,0.3,6.1,1c1.6,0.6,2.8,1.6,3.7,3c0.6,0.9,1,1.9,1.4,3.1c0.3,1.1,0.5,2.4,0.5,3.9
					c0,1.3-0.1,2.6-0.3,3.8c-0.2,1.3-0.6,2.5-1,3.7c-0.4,1.2-0.9,2.3-1.5,3.3c-0.6,1-1.3,1.9-2,2.7c-1.4,1.5-2.9,2.5-4.7,3.1
					c-1.8,0.6-4,0.9-6.6,0.9c-2.5,0-4.6-0.3-6.1-0.8c-1.5-0.5-2.8-1.4-3.7-2.5c-0.6-0.8-1.1-1.8-1.5-3.1c-0.4-1.3-0.5-2.8-0.5-4.7
					c0-3.2,0.6-6.1,1.7-8.7c1.1-2.5,2.8-4.6,4.9-6c1.3-0.9,2.7-1.6,4.3-2C216.4,12.8,218.2,12.6,220.3,12.6z M215.4,38
					c0.7,0,1.3-0.3,1.9-0.9c0.6-0.6,1.1-1.4,1.7-2.4c0.5-1,1-2.1,1.4-3.4c0.4-1.3,0.8-2.6,1.1-4c0.3-1.4,0.5-2.7,0.7-4.1
					c0.2-1.4,0.2-2.6,0.2-3.7c0-1.5-0.2-2.6-0.5-3.1c-0.3-0.6-0.7-0.9-1.3-0.9c-0.7,0-1.3,0.3-1.9,0.9c-0.6,0.6-1.2,1.4-1.7,2.3
					c-0.5,1-1,2.1-1.4,3.4c-0.4,1.3-0.8,2.6-1.1,3.9c-0.3,1.3-0.5,2.7-0.7,4c-0.2,1.3-0.2,2.5-0.2,3.6c0,1.7,0.2,2.8,0.5,3.4
					C214.3,37.7,214.8,38,215.4,38z"/>
				<path d="M238.2,13h9.5l-5.2,24.1h8.9l-0.7,3.7h-18.3L238.2,13z"/>
			</g>
		</g>
		<g>
			<path class="st2" d="M165,166c0.1-0.5,0.2-1.2,0.2-2.1c0-0.5,0-1-0.1-1.5c-0.1-0.5-0.2-1-0.4-1.4c-0.2-0.4-0.4-0.7-0.8-0.9
				c-0.3-0.2-0.8-0.3-1.4-0.3c-0.6,0-1.2,0.1-1.7,0.4s-1,0.6-1.4,1.1c-0.4,0.4-0.7,0.9-0.9,1.5c-0.2,0.6-0.3,1.2-0.3,1.8
				c0,0.9,0.2,1.6,0.7,2.1c0.5,0.5,1.1,0.9,1.9,1.2c0.8,0.3,1.6,0.6,2.6,0.8c1,0.2,2,0.5,3,0.7c0.9,0.2,1.7,0.6,2.6,0.9
				c0.9,0.4,1.6,0.9,2.3,1.5c0.7,0.6,1.2,1.5,1.6,2.5c0.4,1,0.6,2.3,0.6,3.8c0,2.2-0.4,4-1.3,5.5c-0.9,1.5-2.1,2.7-3.6,3.7
				c-1.5,0.9-3.4,1.6-5.5,2c-2.1,0.4-4.4,0.6-6.9,0.6c-2.5,0-4.6-0.2-6.2-0.5c-1.6-0.3-2.8-0.7-3.7-1.1c-1.1-0.5-1.9-1-2.4-1.6
				l1.8-7.2h9.2c0,0.3-0.1,0.7-0.1,1.3c0,0.5-0.1,1-0.1,1.3c0,0.4,0.1,0.9,0.2,1.3c0.1,0.5,0.3,0.9,0.5,1.3c0.2,0.4,0.5,0.7,1,0.9
				s0.9,0.4,1.6,0.4c0.7,0,1.3-0.2,1.9-0.5c0.5-0.3,1-0.7,1.4-1.2c0.4-0.5,0.6-1,0.8-1.6c0.2-0.6,0.3-1.1,0.3-1.7
				c0-0.8-0.2-1.4-0.5-1.9c-0.4-0.5-0.9-1-1.5-1.3c-0.6-0.4-1.4-0.7-2.2-0.9s-1.7-0.5-2.5-0.8c-0.8-0.2-1.7-0.5-2.6-0.9
				c-0.9-0.3-1.8-0.8-2.5-1.5c-0.8-0.6-1.4-1.4-1.9-2.4s-0.8-2.2-0.8-3.7c0-2.2,0.6-4.1,1.7-5.6c1.1-1.5,2.6-2.7,4.3-3.7
				c1.7-0.9,3.6-1.6,5.7-2c2.1-0.4,4-0.6,5.9-0.6c2.4,0,4.5,0.3,6.3,0.9c1.8,0.6,3.1,1.2,4,2l-1.9,7.3H165z"/>
			<path class="st2" d="M194.6,167.1h10.7l-4.8,22.5H192l-0.9-3.4h-0.3c-0.9,1.1-2.1,2-3.7,2.7s-3.1,1.1-4.7,1.1
				c-2.1,0-3.7-0.5-4.9-1.6s-1.8-2.5-1.8-4.2c0-0.9,0.1-2,0.4-3.3c0.3-1.3,0.6-2.5,0.8-3.7l2.2-10.2h10.6l-2.6,12.2
				c-0.1,0.3-0.1,0.6-0.2,1c-0.1,0.4-0.1,0.8-0.2,1.1c-0.1,0.4-0.1,0.7-0.2,1c-0.1,0.3-0.1,0.6-0.1,0.8c0,0.5,0.1,1,0.3,1.3
				c0.2,0.4,0.6,0.5,1.2,0.5c0.6,0,1.2-0.2,1.8-0.6s1-0.8,1.3-1.2L194.6,167.1z"/>
			<path class="st2" d="M221.8,173.7c0-0.2,0.1-0.3,0.1-0.5c0-0.2,0.1-0.4,0.1-0.6c0-0.6-0.1-1.2-0.3-1.8c-0.2-0.5-0.7-0.8-1.3-0.8
				c-0.6,0-1.2,0.3-1.8,0.8c-0.6,0.5-0.9,1.2-0.9,2c0,0.6,0.1,1,0.4,1.3c0.3,0.3,0.7,0.6,1.2,0.8c0.5,0.2,1,0.4,1.6,0.5
				c0.6,0.1,1.2,0.3,1.8,0.4c0.8,0.2,1.6,0.5,2.4,0.8c0.8,0.3,1.4,0.7,2,1.2c0.6,0.5,1.1,1.1,1.4,1.8c0.3,0.7,0.5,1.6,0.5,2.6
				c0,1.5-0.3,2.7-1,3.7c-0.7,1-1.6,1.8-2.8,2.4c-1.2,0.6-2.6,1-4.2,1.3c-1.6,0.2-3.4,0.4-5.2,0.4c-2.8,0-5.2-0.2-7-0.6
				c-1.8-0.4-3.1-0.8-3.9-1.2l1.1-5.2h7.1c0,0.2-0.1,0.3-0.1,0.5c0,0.2,0,0.3,0,0.5c0,0.8,0.2,1.4,0.5,1.9c0.4,0.5,1,0.7,1.9,0.7
				c1,0,1.7-0.3,2.2-0.9c0.4-0.6,0.7-1.1,0.7-1.6c0-0.5-0.2-0.9-0.5-1.3c-0.4-0.4-0.8-0.7-1.4-0.9c-0.6-0.3-1.2-0.5-1.9-0.7
				c-0.7-0.2-1.3-0.4-2-0.5c-0.5-0.1-1-0.3-1.5-0.5c-0.6-0.2-1.1-0.6-1.6-1c-0.5-0.5-1-1-1.3-1.8c-0.3-0.7-0.5-1.6-0.5-2.7
				c0-1.5,0.4-2.8,1.1-3.8c0.8-1,1.7-1.9,2.9-2.5c1.2-0.6,2.6-1.1,4.1-1.4c1.5-0.3,3-0.4,4.6-0.4c1.9,0,3.7,0.2,5.4,0.5
				c1.7,0.3,3.1,0.8,4.2,1.4l-1.2,5.3H221.8z"/>
			<path class="st2" d="M239.5,198.4h-10.7l6.6-31.3h8.5l0.9,3.3h0.3c1.3-1.3,2.7-2.3,4.2-2.9c1.6-0.6,3.1-0.9,4.6-0.9
				c1.2,0,2.2,0.2,3.1,0.5c0.8,0.4,1.5,0.9,2,1.5c0.5,0.6,0.8,1.4,1,2.3c0.2,0.9,0.3,1.8,0.3,2.8c0,0.5,0,1.2-0.1,2.2
				c-0.1,1-0.2,2.1-0.5,3.3c-0.2,1.2-0.6,2.4-1,3.7c-0.5,1.3-1.1,2.4-1.8,3.5c-0.8,1-1.7,1.9-2.8,2.6c-1.1,0.7-2.5,1-4.1,1
				c-0.9,0-1.7-0.1-2.5-0.3c-0.8-0.2-1.6-0.5-2.2-0.8s-1.2-0.8-1.8-1.2c-0.5-0.5-0.9-1-1.1-1.4h-0.3L239.5,198.4z M245,184.9
				c0.8,0,1.5-0.4,2.1-1.3c0.6-0.9,1-1.9,1.4-3.1c0.3-1.2,0.6-2.4,0.8-3.6s0.2-2.1,0.2-2.7c0-0.7-0.1-1.3-0.3-1.7
				c-0.2-0.5-0.6-0.7-1.2-0.7c-0.7,0-1.3,0.2-1.9,0.7c-0.6,0.5-1,0.9-1.3,1.2l-2,9.6c0.3,0.4,0.6,0.8,1,1.1
				C244.1,184.7,244.5,184.9,245,184.9z"/>
			<path class="st2" d="M273.2,179c-0.1,0.8-0.2,1.5-0.3,2.2c-0.1,0.7-0.1,1.3-0.1,1.9c0,0.3,0,0.7,0.1,1c0,0.4,0.1,0.7,0.2,1.1
				c0.1,0.3,0.3,0.6,0.5,0.8c0.2,0.2,0.5,0.3,1,0.3c0.3,0,0.7-0.1,1.1-0.3c0.4-0.2,0.8-0.5,1.2-0.9c0.4-0.4,0.8-0.9,1.2-1.4
				c0.4-0.6,0.7-1.2,0.9-1.9h8.6l-1.4,5.6c-0.7,0.5-1.5,0.8-2.4,1.2c-0.9,0.3-1.9,0.6-2.9,0.8s-2,0.3-3.1,0.4c-1,0.1-2,0.1-3,0.1
				c-1.7,0-3.4-0.2-4.9-0.5c-1.5-0.3-2.8-0.9-3.9-1.6c-1.1-0.8-2-1.8-2.6-3.1c-0.6-1.3-1-2.9-1-4.7c0-1.7,0.3-3.4,0.8-5
				c0.5-1.6,1.4-3.1,2.7-4.4c1.3-1.3,3-2.3,5.1-3.1c2.1-0.8,4.8-1.2,8-1.2c3.5,0,6.1,0.5,7.9,1.6c1.8,1.1,2.6,2.8,2.6,5.1
				c0,0.9-0.1,2-0.4,3.1s-0.7,2-1.3,2.8H273.2z M280.2,172.8c0-1.1-0.2-1.8-0.5-2.2c-0.3-0.4-0.8-0.6-1.3-0.6
				c-0.6,0-1.1,0.2-1.5,0.5c-0.5,0.4-0.9,0.9-1.3,1.5c-0.4,0.6-0.7,1.3-1,2.1c-0.3,0.8-0.6,1.6-0.8,2.5h6c0.1-0.4,0.1-0.9,0.2-1.3
				c0.1-0.4,0.1-0.8,0.2-1.3C280.1,173.6,280.2,173.2,280.2,172.8z"/>
			<path class="st2" d="M304.4,170.4c0.7-0.7,1.6-1.3,2.5-1.9c0.8-0.5,1.7-0.9,2.8-1.4c1.1-0.4,2.3-0.6,3.6-0.6
				c1.8,0,3.3,0.5,4.5,1.4c1.2,0.9,1.8,2.2,1.8,3.8c0,0.5-0.1,1-0.2,1.6c-0.1,0.6-0.2,1.3-0.4,2c-0.1,0.7-0.3,1.4-0.4,2.1
				c-0.2,0.7-0.3,1.4-0.4,1.9l-2.2,10.2h-10.6l2.9-13.7c0.1-0.5,0.2-0.9,0.3-1.4c0.1-0.5,0.2-0.9,0.2-1.3c0-0.5-0.1-1-0.4-1.3
				s-0.7-0.5-1.2-0.5c-0.6,0-1.2,0.2-1.8,0.7c-0.6,0.5-1,0.8-1.3,1.2l-3.5,16.3h-10.7l4.8-22.5h8.5l0.9,3.3H304.4z"/>
			<path class="st2" d="M337.2,173.7c0-0.2,0.1-0.3,0.1-0.5c0-0.2,0.1-0.4,0.1-0.6c0-0.6-0.1-1.2-0.3-1.8c-0.2-0.5-0.7-0.8-1.3-0.8
				c-0.6,0-1.2,0.3-1.8,0.8c-0.6,0.5-0.9,1.2-0.9,2c0,0.6,0.1,1,0.4,1.3c0.3,0.3,0.7,0.6,1.2,0.8c0.5,0.2,1,0.4,1.6,0.5
				c0.6,0.1,1.2,0.3,1.8,0.4c0.8,0.2,1.6,0.5,2.4,0.8c0.8,0.3,1.4,0.7,2,1.2c0.6,0.5,1.1,1.1,1.4,1.8c0.3,0.7,0.5,1.6,0.5,2.6
				c0,1.5-0.3,2.7-1,3.7c-0.7,1-1.6,1.8-2.8,2.4c-1.2,0.6-2.6,1-4.2,1.3c-1.6,0.2-3.4,0.4-5.2,0.4c-2.8,0-5.2-0.2-7-0.6
				c-1.8-0.4-3.1-0.8-3.9-1.2l1.1-5.2h7.1c0,0.2-0.1,0.3-0.1,0.5c0,0.2,0,0.3,0,0.5c0,0.8,0.2,1.4,0.5,1.9c0.4,0.5,1,0.7,1.9,0.7
				c1,0,1.7-0.3,2.2-0.9c0.4-0.6,0.7-1.1,0.7-1.6c0-0.5-0.2-0.9-0.5-1.3c-0.4-0.4-0.8-0.7-1.4-0.9c-0.6-0.3-1.2-0.5-1.9-0.7
				c-0.7-0.2-1.3-0.4-2-0.5c-0.5-0.1-1-0.3-1.5-0.5c-0.6-0.2-1.1-0.6-1.6-1c-0.5-0.5-1-1-1.3-1.8c-0.3-0.7-0.5-1.6-0.5-2.7
				c0-1.5,0.4-2.8,1.1-3.8c0.8-1,1.7-1.9,2.9-2.5c1.2-0.6,2.6-1.1,4.1-1.4c1.5-0.3,3-0.4,4.6-0.4c1.9,0,3.7,0.2,5.4,0.5
				c1.7,0.3,3.1,0.8,4.2,1.4l-1.2,5.3H337.2z"/>
			<path class="st2" d="M356.7,189.6h-10.6l4.8-22.5h10.7L356.7,189.6z M362.9,160.2c0,0.8-0.2,1.5-0.5,2.1
				c-0.3,0.6-0.8,1.1-1.3,1.5c-0.5,0.4-1.2,0.7-1.9,0.9c-0.7,0.2-1.4,0.3-2.1,0.3c-1.4,0-2.6-0.3-3.5-1c-0.9-0.7-1.4-1.7-1.4-3.1
				c0-0.8,0.2-1.5,0.5-2.1c0.3-0.6,0.7-1.1,1.3-1.5s1.2-0.7,1.9-0.9c0.7-0.2,1.5-0.3,2.2-0.3c1.4,0,2.5,0.3,3.5,1
				C362.4,157.8,362.9,158.8,362.9,160.2z"/>
			<path class="st2" d="M378.4,166.5c4.2,0,7.2,0.7,9.1,2.2c2,1.5,3,4.1,3,7.6c0,2.2-0.4,4.2-1.1,5.9c-0.7,1.8-1.8,3.2-3.1,4.4
				c-2.7,2.2-6.5,3.4-11.5,3.4c-4.3,0-7.4-0.8-9.2-2.5c-2-1.7-3-4.3-3-7.7c0-2.3,0.5-4.3,1.4-6.2c0.9-1.8,2.3-3.4,4-4.6
				C370.5,167.3,374,166.5,378.4,166.5z M374.8,186.4c0.9,0,1.6-0.5,2.3-1.5c0.6-1,1.2-2.2,1.5-3.6c0.4-1.4,0.7-2.9,0.9-4.4
				c0.2-1.5,0.3-2.8,0.3-4c0-1-0.1-1.7-0.3-2.2c-0.2-0.5-0.6-0.8-1.2-0.8c-0.9,0-1.8,0.5-2.4,1.5c-0.7,1-1.2,2.2-1.6,3.6
				c-0.4,1.4-0.7,2.8-0.9,4.3c-0.2,1.5-0.3,2.7-0.3,3.6C373,185.3,373.6,186.4,374.8,186.4z"/>
			<path class="st2" d="M406,170.4c0.7-0.7,1.6-1.3,2.5-1.9c0.8-0.5,1.7-0.9,2.8-1.4c1.1-0.4,2.3-0.6,3.6-0.6c1.8,0,3.3,0.5,4.5,1.4
				c1.2,0.9,1.8,2.2,1.8,3.8c0,0.5-0.1,1-0.2,1.6c-0.1,0.6-0.2,1.3-0.4,2c-0.1,0.7-0.3,1.4-0.4,2.1c-0.2,0.7-0.3,1.4-0.4,1.9
				l-2.2,10.2H407l2.9-13.7c0.1-0.5,0.2-0.9,0.3-1.4c0.1-0.5,0.2-0.9,0.2-1.3c0-0.5-0.1-1-0.4-1.3s-0.7-0.5-1.2-0.5
				c-0.6,0-1.2,0.2-1.8,0.7c-0.6,0.5-1,0.8-1.3,1.2l-3.5,16.3h-10.7l4.8-22.5h8.5l0.9,3.3H406z"/>
			<path class="st2" d="M438.8,173.7c0-0.2,0.1-0.3,0.1-0.5c0-0.2,0.1-0.4,0.1-0.6c0-0.6-0.1-1.2-0.3-1.8c-0.2-0.5-0.7-0.8-1.3-0.8
				c-0.6,0-1.2,0.3-1.8,0.8c-0.6,0.5-0.9,1.2-0.9,2c0,0.6,0.1,1,0.4,1.3c0.3,0.3,0.7,0.6,1.2,0.8c0.5,0.2,1,0.4,1.6,0.5
				c0.6,0.1,1.2,0.3,1.8,0.4c0.8,0.2,1.6,0.5,2.4,0.8c0.8,0.3,1.4,0.7,2,1.2c0.6,0.5,1.1,1.1,1.4,1.8c0.3,0.7,0.5,1.6,0.5,2.6
				c0,1.5-0.3,2.7-1,3.7c-0.7,1-1.6,1.8-2.8,2.4c-1.2,0.6-2.6,1-4.2,1.3c-1.6,0.2-3.4,0.4-5.2,0.4c-2.8,0-5.2-0.2-7-0.6
				c-1.8-0.4-3.1-0.8-3.9-1.2l1.1-5.2h7.1c0,0.2-0.1,0.3-0.1,0.5c0,0.2,0,0.3,0,0.5c0,0.8,0.2,1.4,0.5,1.9c0.4,0.5,1,0.7,1.9,0.7
				c1,0,1.7-0.3,2.2-0.9c0.4-0.6,0.7-1.1,0.7-1.6c0-0.5-0.2-0.9-0.5-1.3c-0.4-0.4-0.8-0.7-1.4-0.9c-0.6-0.3-1.2-0.5-1.9-0.7
				c-0.7-0.2-1.3-0.4-2-0.5c-0.5-0.1-1-0.3-1.5-0.5c-0.6-0.2-1.1-0.6-1.6-1c-0.5-0.5-1-1-1.3-1.8c-0.3-0.7-0.5-1.6-0.5-2.7
				c0-1.5,0.4-2.8,1.1-3.8c0.8-1,1.7-1.9,2.9-2.5c1.2-0.6,2.6-1.1,4.1-1.4c1.5-0.3,3-0.4,4.6-0.4c1.9,0,3.7,0.2,5.4,0.5
				c1.7,0.3,3.1,0.8,4.2,1.4l-1.2,5.3H438.8z"/>
		</g>
	</g>
</g>
</svg>
